{
  "accessors": [
    {
      "bufferView": 2,
      "componentType": 5126,
      "count": 5539,
      "max": [
        24.002899169921875,
        4.804900169372559,
        150.69630432128906
      ],
      "min": [
        -22.39739990234375,
        -69.69499969482422,
        0.03530000150203705
      ],
      "type": "VEC3"
    },
    {
      "bufferView": 2,
      "byteOffset": 66468,
      "componentType": 5126,
      "count": 5539,
      "type": "VEC3"
    },
    {
      "bufferView": 1,
      "componentType": 5126,
      "count": 5539,
      "type": "VEC2"
    },
    {
      "bufferView": 0,
      "componentType": 5125,
      "count": 23160,
      "type": "SCALAR"
    },
    {
      "bufferView": 2,
      "byteOffset": 132936,
      "componentType": 5126,
      "count": 42059,
      "max": [
        130.4261016845703,
        131.7115020751953,
        370.62921142578125
      ],
      "min": [
        -130.3206024169922,
        -49.917301177978516,
        11.408100128173828
      ],
      "type": "VEC3"
    },
    {
      "bufferView": 2,
      "byteOffset": 637644,
      "componentType": 5126,
      "count": 42059,
      "type": "VEC3"
    },
    {
      "bufferView": 1,
      "byteOffset": 44312,
      "componentType": 5126,
      "count": 42059,
      "type": "VEC2"
    },
    {
      "bufferView": 0,
      "byteOffset": 92640,
      "componentType": 5125,
      "count": 176616,
      "type": "SCALAR"
    },
    {
      "bufferView": 2,
      "byteOffset": 1142352,
      "componentType": 5126,
      "count": 28,
      "max": [
        239.89739990234375,
        239.89739990234375,
        0.0
      ],
      "min": [
        -239.89739990234375,
        -239.89739990234375,
        0.0
      ],
      "type": "VEC3"
    },
    {
      "bufferView": 2,
      "byteOffset": 1142688,
      "componentType": 5126,
      "count": 28,
      "type": "VEC3"
    },
    {
      "bufferView": 1,
      "byteOffset": 380784,
      "componentType": 5126,
      "count": 28,
      "type": "VEC2"
    },
    {
      "bufferView": 0,
      "byteOffset": 799104,
      "componentType": 5125,
      "count": 78,
      "type": "SCALAR"
    },
    {
      "bufferView": 2,
      "byteOffset": 1143024,
      "componentType": 5126,
      "count": 65532,
      "max": [
        0.5806999802589417,
        124.43350219726563,
        111.49210357666016
      ],
      "min": [
        -106.59970092773438,
        -4.8333001136779785,
        11.73449993133545
      ],
      "type": "VEC3"
    },
    {
      "bufferView": 2,
      "byteOffset": 1929408,
      "componentType": 5126,
      "count": 65532,
      "type": "VEC3"
    },
    {
      "bufferView": 1,
      "byteOffset": 381008,
      "componentType": 5126,
      "count": 65532,
      "type": "VEC2"
    },
    {
      "bufferView": 0,
      "byteOffset": 799416,
      "componentType": 5125,
      "count": 115806,
      "type": "SCALAR"
    },
    {
      "bufferView": 2,
      "byteOffset": 2715792,
      "componentType": 5126,
      "count": 65532,
      "max": [
        106.70390319824219,
        124.43350219726563,
        111.49199676513672
      ],
      "min": [
        -106.56639862060547,
        -4.833399772644043,
        11.73449993133545
      ],
      "type": "VEC3"
    },
    {
      "bufferView": 2,
      "byteOffset": 3502176,
      "componentType": 5126,
      "count": 65532,
      "type": "VEC3"
    },
    {
      "bufferView": 1,
      "byteOffset": 905264,
      "componentType": 5126,
      "count": 65532,
      "type": "VEC2"
    },
    {
      "bufferView": 0,
      "byteOffset": 1262640,
      "componentType": 5125,
      "count": 123591,
      "type": "SCALAR"
    },
    {
      "bufferView": 2,
      "byteOffset": 4288560,
      "componentType": 5126,
      "count": 65533,
      "max": [
        106.70390319824219,
        124.43350219726563,
        316.715087890625
      ],
      "min": [
        0.07270000129938126,
        -48.51810073852539,
        11.73449993133545
      ],
      "type": "VEC3"
    },
    {
      "bufferView": 2,
      "byteOffset": 5074956,
      "componentType": 5126,
      "count": 65533,
      "type": "VEC3"
    },
    {
      "bufferView": 1,
      "byteOffset": 1429520,
      "componentType": 5126,
      "count": 65533,
      "type": "VEC2"
    },
    {
      "bufferView": 0,
      "byteOffset": 1757004,
      "componentType": 5125,
      "count": 126282,
      "type": "SCALAR"
    },
    {
      "bufferView": 2,
      "byteOffset": 5861352,
      "componentType": 5126,
      "count": 65532,
      "max": [
        78.58799743652344,
        66.96990203857422,
        306.9993896484375
      ],
      "min": [
        -78.62460327148438,
        -46.68330001831055,
        69.72630310058594
      ],
      "type": "VEC3"
    },
    {
      "bufferView": 2,
      "byteOffset": 6647736,
      "componentType": 5126,
      "count": 65532,
      "type": "VEC3"
    },
    {
      "bufferView": 1,
      "byteOffset": 1953784,
      "componentType": 5126,
      "count": 65532,
      "type": "VEC2"
    },
    {
      "bufferView": 0,
      "byteOffset": 2262132,
      "componentType": 5125,
      "count": 125544,
      "type": "SCALAR"
    },
    {
      "bufferView": 2,
      "byteOffset": 7434120,
      "componentType": 5126,
      "count": 65534,
      "max": [
        -1.4953999519348145,
        67.06620025634766,
        316.71490478515625
      ],
      "min": [
        -80.36139678955078,
        -48.51839828491211,
        69.53260040283203
      ],
      "type": "VEC3"
    },
    {
      "bufferView": 2,
      "byteOffset": 8220528,
      "componentType": 5126,
      "count": 65534,
      "type": "VEC3"
    },
    {
      "bufferView": 1,
      "byteOffset": 2478040,
      "componentType": 5126,
      "count": 65534,
      "type": "VEC2"
    },
    {
      "bufferView": 0,
      "byteOffset": 2764308,
      "componentType": 5125,
      "count": 121632,
      "type": "SCALAR"
    },
    {
      "bufferView": 2,
      "byteOffset": 9006936,
      "componentType": 5126,
      "count": 65534,
      "max": [
        -1.2072999477386475,
        67.06620025634766,
        316.71490478515625
      ],
      "min": [
        -80.49960327148438,
        -48.51839828491211,
        69.53260040283203
      ],
      "type": "VEC3"
    },
    {
      "bufferView": 2,
      "byteOffset": 9793344,
      "componentType": 5126,
      "count": 65534,
      "type": "VEC3"
    },
    {
      "bufferView": 1,
      "byteOffset": 3002312,
      "componentType": 5126,
      "count": 65534,
      "type": "VEC2"
    },
    {
      "bufferView": 0,
      "byteOffset": 3250836,
      "componentType": 5125,
      "count": 118083,
      "type": "SCALAR"
    },
    {
      "bufferView": 2,
      "byteOffset": 10579752,
      "componentType": 5126,
      "count": 65534,
      "max": [
        80.6050033569336,
        56.215301513671875,
        316.715087890625
      ],
      "min": [
        -48.70249938964844,
        -48.51810073852539,
        71.23639678955078
      ],
      "type": "VEC3"
    },
    {
      "bufferView": 2,
      "byteOffset": 11366160,
      "componentType": 5126,
      "count": 65534,
      "type": "VEC3"
    },
    {
      "bufferView": 1,
      "byteOffset": 3526584,
      "componentType": 5126,
      "count": 65534,
      "type": "VEC2"
    },
    {
      "bufferView": 0,
      "byteOffset": 3723168,
      "componentType": 5125,
      "count": 126609,
      "type": "SCALAR"
    },
    {
      "bufferView": 2,
      "byteOffset": 12152568,
      "componentType": 5126,
      "count": 49236,
      "max": [
        79.8134994506836,
        67.06649780273438,
        310.1069030761719
      ],
      "min": [
        1.6008000373840332,
        -46.99789810180664,
        69.53279876708984
      ],
      "type": "VEC3"
    },
    {
      "bufferView": 2,
      "byteOffset": 12743400,
      "componentType": 5126,
      "count": 49236,
      "type": "VEC3"
    },
    {
      "bufferView": 1,
      "byteOffset": 4050856,
      "componentType": 5126,
      "count": 49236,
      "type": "VEC2"
    },
    {
      "bufferView": 0,
      "byteOffset": 4229604,
      "componentType": 5125,
      "count": 96537,
      "type": "SCALAR"
    },
    {
      "bufferView": 2,
      "byteOffset": 13334232,
      "componentType": 5126,
      "count": 16647,
      "max": [
        6.963099956512451,
        6.839099884033203,
        91.618896484375
      ],
      "min": [
        -6.963099956512451,
        -25.605300903320313,
        48.7052001953125
      ],
      "type": "VEC3"
    },
    {
      "bufferView": 2,
      "byteOffset": 13533996,
      "componentType": 5126,
      "count": 16647,
      "type": "VEC3"
    },
    {
      "bufferView": 1,
      "byteOffset": 4444744,
      "componentType": 5126,
      "count": 16647,
      "type": "VEC2"
    },
    {
      "bufferView": 0,
      "byteOffset": 4615752,
      "componentType": 5125,
      "count": 73500,
      "type": "SCALAR"
    },
    {
      "bufferView": 2,
      "byteOffset": 13733760,
      "componentType": 5126,
      "count": 16652,
      "max": [
        5.563600063323975,
        5.441500186920166,
        90.70269775390625
      ],
      "min": [
        -5.563600063323975,
        -24.670799255371094,
        49.112998962402344
      ],
      "type": "VEC3"
    },
    {
      "bufferView": 2,
      "byteOffset": 13933584,
      "componentType": 5126,
      "count": 16652,
      "type": "VEC3"
    },
    {
      "bufferView": 1,
      "byteOffset": 4577920,
      "componentType": 5126,
      "count": 16652,
      "type": "VEC2"
    },
    {
      "bufferView": 0,
      "byteOffset": 4909752,
      "componentType": 5125,
      "count": 73500,
      "type": "SCALAR"
    }
  ],
  "asset": {
    "generator": "fab-model-conversion",
    "version": "2.0"
  },
  "bufferViews": [
    {
      "buffer": 0,
      "byteLength": 5203752,
      "target": 34963
    },
    {
      "buffer": 0,
      "byteLength": 4711136,
      "byteOffset": 5203752,
      "byteStride": 8,
      "target": 34962
    },
    {
      "buffer": 0,
      "byteLength": 14133408,
      "byteOffset": 9914888,
      "byteStride": 12,
      "target": 34962
    }
  ],
  "buffers": [
    {
      "byteLength": 24048296,
      "uri": "scene.bin"
    }
  ],
  "extensionsUsed": [
    "KHR_materials_emissive_strength",
    "KHR_materials_specular"
  ],
  "images": [
    {
      "uri": "textures/wire_000255000_baseColor.jpeg"
    },
    {
      "uri": "textures/wire_042116168_baseColor.jpeg"
    },
    {
      "uri": "textures/wire_135059008_baseColor.png"
    },
    {
      "uri": "textures/wire_154215229_baseColor.png"
    },
    {
      "uri": "textures/wire_154215229_metallicRoughness.png"
    },
    {
      "uri": "textures/wire_154215229_emissive.jpeg"
    },
    {
      "uri": "textures/wire_184007009_baseColor.png"
    },
    {
      "uri": "textures/wire_255255000_baseColor.jpeg"
    }
  ],
  "materials": [
    {
      "doubleSided": true,
      "name": "wire_000255000",
      "pbrMetallicRoughness": {
        "baseColorTexture": {
          "index": 0
        },
        "metallicFactor": 0.0,
        "roughnessFactor": 0.9167555019498095
      }
    },
    {
      "doubleSided": true,
      "emissiveFactor": [
        0.12285579590514366,
        0.1918505201650777,
        0.3052835848314484
      ],
      "extensions": {
        "KHR_materials_emissive_strength": {
          "emissiveStrength": 1.1176385399547908
        },
        "KHR_materials_specular": {
          "specularColorFactor": [
            1.0,
            1.0,
            1.0
          ],
          "specularFactor": 1.0
        }
      },
      "name": "wire_042116168",
      "pbrMetallicRoughness": {
        "baseColorTexture": {
          "index": 1
        },
        "roughnessFactor": 0.10116675167016131
      }
    },
    {
      "alphaMode": "BLEND",
      "doubleSided": true,
      "name": "wire_135059008",
      "pbrMetallicRoughness": {
        "baseColorTexture": {
          "index": 2
        },
        "metallicFactor": 0.0,
        "roughnessFactor": 0.9167555019498095
      }
    },
    {
      "alphaMode": "BLEND",
      "doubleSided": true,
      "emissiveFactor": [
        0.6139141275808004,
        0.6139141275808004,
        0.6139141275808004
      ],
      "emissiveTexture": {
        "index": 5
      },
      "extensions": {
        "KHR_materials_specular": {
          "specularColorFactor": [
            1.0,
            1.0,
            1.0
          ],
          "specularFactor": 0.5651158251320703
        }
      },
      "name": "wire_154215229",
      "pbrMetallicRoughness": {
        "baseColorTexture": {
          "index": 3
        },
        "metallicRoughnessTexture": {
          "index": 4
        }
      }
    },
    {
      "alphaMode": "BLEND",
      "doubleSided": true,
      "extensions": {
        "KHR_materials_specular": {
          "specularColorFactor": [
            1.0,
            1.0,
            1.0
          ],
          "specularFactor": 1.0
        }
      },
      "name": "wire_184007009",
      "pbrMetallicRoughness": {
        "baseColorTexture": {
          "index": 6
        },
        "roughnessFactor": 0.09487019651548645
      }
    },
    {
      "doubleSided": true,
      "emissiveFactor": [
        0.23059370930291115,
        0.22735905928013672,
        0.775209617965722
      ],
      "extensions": {
        "KHR_materials_emissive_strength": {
          "emissiveStrength": 10
        }
      },
      "name": "wire_255255000",
      "pbrMetallicRoughness": {
        "baseColorTexture": {
          "index": 7
        },
        "metallicFactor": 0.0,
        "roughnessFactor": 0.9167555019498095
      }
    }
  ],
  "meshes": [
    {
      "name": "Object_0",
      "primitives": [
        {
          "attributes": {
            "NORMAL": 1,
            "POSITION": 0,
            "TEXCOORD_0": 2
          },
          "indices": 3,
          "material": 0,
          "mode": 4
        }
      ]
    },
    {
      "name": "Object_1",
      "primitives": [
        {
          "attributes": {
            "NORMAL": 5,
            "POSITION": 4,
            "TEXCOORD_0": 6
          },
          "indices": 7,
          "material": 1,
          "mode": 4
        }
      ]
    },
    {
      "name": "Object_2",
      "primitives": [
        {
          "attributes": {
            "NORMAL": 9,
            "POSITION": 8,
            "TEXCOORD_0": 10
          },
          "indices": 11,
          "material": 2,
          "mode": 4
        }
      ]
    },
    {
      "name": "Object_3",
      "primitives": [
        {
          "attributes": {
            "NORMAL": 13,
            "POSITION": 12,
            "TEXCOORD_0": 14
          },
          "indices": 15,
          "material": 3,
          "mode": 4
        }
      ]
    },
    {
      "name": "Object_4",
      "primitives": [
        {
          "attributes": {
            "NORMAL": 17,
            "POSITION": 16,
            "TEXCOORD_0": 18
          },
          "indices": 19,
          "material": 3,
          "mode": 4
        }
      ]
    },
    {
      "name": "Object_5",
      "primitives": [
        {
          "attributes": {
            "NORMAL": 21,
            "POSITION": 20,
            "TEXCOORD_0": 22
          },
          "indices": 23,
          "material": 3,
          "mode": 4
        }
      ]
    },
    {
      "name": "Object_6",
      "primitives": [
        {
          "attributes": {
            "NORMAL": 25,
            "POSITION": 24,
            "TEXCOORD_0": 26
          },
          "indices": 27,
          "material": 3,
          "mode": 4
        }
      ]
    },
    {
      "name": "Object_7",
      "primitives": [
        {
          "attributes": {
            "NORMAL": 29,
            "POSITION": 28,
            "TEXCOORD_0": 30
          },
          "indices": 31,
          "material": 3,
          "mode": 4
        }
      ]
    },
    {
      "name": "Object_8",
      "primitives": [
        {
          "attributes": {
            "NORMAL": 33,
            "POSITION": 32,
            "TEXCOORD_0": 34
          },
          "indices": 35,
          "material": 3,
          "mode": 4
        }
      ]
    },
    {
      "name": "Object_9",
      "primitives": [
        {
          "attributes": {
            "NORMAL": 37,
            "POSITION": 36,
            "TEXCOORD_0": 38
          },
          "indices": 39,
          "material": 3,
          "mode": 4
        }
      ]
    },
    {
      "name": "Object_10",
      "primitives": [
        {
          "attributes": {
            "NORMAL": 41,
            "POSITION": 40,
            "TEXCOORD_0": 42
          },
          "indices": 43,
          "material": 3,
          "mode": 4
        }
      ]
    },
    {
      "name": "Object_11",
      "primitives": [
        {
          "attributes": {
            "NORMAL": 45,
            "POSITION": 44,
            "TEXCOORD_0": 46
          },
          "indices": 47,
          "material": 4,
          "mode": 4
        }
      ]
    },
    {
      "name": "Object_12",
      "primitives": [
        {
          "attributes": {
            "NORMAL": 49,
            "POSITION": 48,
            "TEXCOORD_0": 50
          },
          "indices": 51,
          "material": 5,
          "mode": 4
        }
      ]
    }
  ],
  "nodes": [
    {
      "children": [
        1
      ],
      "matrix": [
        1.0,
        0.0,
        0.0,
        0.0,
        0.0,
        2.220446049250313e-16,
        -1.0,
        0.0,
        0.0,
        1.0,
        2.220446049250313e-16,
        0.0,
        0.0,
        0.0,
        0.0,
        1.0
      ],
      "name": "Sketchfab_model"
    },
    {
      "children": [
        2,
        3,
        4,
        5,
        6,
        7,
        8,
        9,
        10,
        11,
        12,
        13,
        14
      ],
      "name": "Matiposa_001.obj.cleaner.materialmerger.gles"
    },
    {
      "mesh": 0,
      "name": "Object_2"
    },
    {
      "mesh": 1,
      "name": "Object_3"
    },
    {
      "mesh": 2,
      "name": "Object_4"
    },
    {
      "mesh": 3,
      "name": "Object_5"
    },
    {
      "mesh": 4,
      "name": "Object_6"
    },
    {
      "mesh": 5,
      "name": "Object_7"
    },
    {
      "mesh": 6,
      "name": "Object_8"
    },
    {
      "mesh": 7,
      "name": "Object_9"
    },
    {
      "mesh": 8,
      "name": "Object_10"
    },
    {
      "mesh": 9,
      "name": "Object_11"
    },
    {
      "mesh": 10,
      "name": "Object_12"
    },
    {
      "mesh": 11,
      "name": "Object_13"
    },
    {
      "mesh": 12,
      "name": "Object_14"
    }
  ],
  "samplers": [
    {
      "magFilter": 9729,
      "minFilter": 9987,
      "wrapS": 10497,
      "wrapT": 10497
    }
  ],
  "scene": 0,
  "scenes": [
    {
      "name": "Sketchfab_Scene",
      "nodes": [
        0
      ]
    }
  ],
  "textures": [
    {
      "sampler": 0,
      "source": 0
    },
    {
      "sampler": 0,
      "source": 1
    },
    {
      "sampler": 0,
      "source": 2
    },
    {
      "sampler": 0,
      "source": 3
    },
    {
      "sampler": 0,
      "source": 4
    },
    {
      "sampler": 0,
      "source": 5
    },
    {
      "sampler": 0,
      "source": 6
    },
    {
      "sampler": 0,
      "source": 7
    }
  ]
}
